<svg class="animated" id="freepik_stories-unicorn-with-rainbow" xmlns="http://www.w3.org/2000/svg" viewBox="0 0 500 500" version="1.1" xmlns:xlink="http://www.w3.org/1999/xlink" xmlns:svgjs="http://svgjs.com/svgjs"><style>svg#freepik_stories-unicorn-with-rainbow:not(.animated) .animable {opacity: 0;}svg#freepik_stories-unicorn-with-rainbow.animated #freepik--Unicorn--inject-52 {animation: 1s 1 forwards cubic-bezier(.36,-0.01,.5,1.38) fadeIn,3s Infinite  linear floating;animation-delay: 0s,1s;}            @keyframes fadeIn {                0% {                    opacity: 0;                }                100% {                    opacity: 1;                }            }                    @keyframes floating {                0% {                    opacity: 1;                    transform: translateY(0px);                }                50% {                    transform: translateY(-10px);                }                100% {                    opacity: 1;                    transform: translateY(0px);                }            }        </style><g id="freepik--Rainbow--inject-52" class="animable animator-active" style="transform-origin: 265.94px 142.503px;"><path d="M197.46,51.78A154.79,154.79,0,0,0,108.09,242.1H140.4l63.14-25.64A56.32,56.32,0,0,1,307.9,174.09L399.21,137A154.78,154.78,0,0,0,197.46,51.78Z" style="fill: rgb(0, 255, 136); transform-origin: 250.017px 141.238px;" id="ellajgdyjmwgd" class="animable"></path><path d="M202.75,64.83A140.7,140.7,0,0,0,122.94,242.1H140.4l63.14-25.64A56.32,56.32,0,0,1,307.9,174.09l78.27-31.77A140.71,140.71,0,0,0,202.75,64.83Z" style="fill: rgb(0, 255, 136); transform-origin: 250.536px 148.281px;" id="elgoc545v4r8l" class="animable"></path><g id="elmpyvaqjbewr"><path d="M202.75,64.83A140.7,140.7,0,0,0,122.94,242.1H140.4l63.14-25.64A56.32,56.32,0,0,1,307.9,174.09l78.27-31.77A140.71,140.71,0,0,0,202.75,64.83Z" style="fill: rgb(255, 255, 255); opacity: 0.2; transform-origin: 250.536px 148.281px;" class="animable"></path></g><path d="M147.19,239.34C153,238,158,234,164,232c13-5,27-9,39.54-15.54" style="fill: none; transform-origin: 175.365px 227.9px;" id="elbxn7xdsnr6r" class="animable"></path><polyline points="399.21 137.02 386.17 142.31 373.12 147.61 360.08 152.91 347.03 158.21 333.99 163.5 320.94 168.8 307.9 174.09" style="fill: none; transform-origin: 353.555px 155.555px;" id="elntiebj2cg7m" class="animable"></polyline><path d="M373.12,147.61,307.9,174.09a56.32,56.32,0,0,0-104.36,42.37l-65.23,26.48a126.71,126.71,0,0,1,234.81-95.33Z" style="fill: rgb(0, 255, 136); transform-origin: 251.062px 155.752px;" id="elkvmbjovshap" class="animable"></path><g id="elc3fxs6c7xrn"><path d="M373.12,147.61,307.9,174.09a56.32,56.32,0,0,0-104.36,42.37l-65.23,26.48a126.71,126.71,0,0,1,234.81-95.33Z" style="fill: rgb(255, 255, 255); opacity: 0.4; transform-origin: 251.062px 155.752px;" class="animable"></path></g><path d="M360.08,152.91,307.9,174.09a56.32,56.32,0,0,0-104.36,42.37l-52.18,21.19a112.63,112.63,0,0,1,208.72-84.74Z" style="fill: rgb(0, 255, 136); transform-origin: 251.583px 160.148px;" id="el2zeeran0mtp" class="animable"></path><g id="ellktoodinn8"><path d="M360.08,152.91,307.9,174.09a56.32,56.32,0,0,0-104.36,42.37l-52.18,21.19a112.63,112.63,0,0,1,208.72-84.74Z" style="fill: rgb(255, 255, 255); opacity: 0.5; transform-origin: 251.583px 160.148px;" class="animable"></path></g><path d="M347,158.2,307.9,174.09a56.32,56.32,0,0,0-104.36,42.37L164.4,232.35A98.55,98.55,0,0,1,347,158.2Z" style="fill: rgb(0, 255, 136); transform-origin: 252.331px 165.169px;" id="eljjz4mkq7qvk" class="animable"></path><g id="elgeqjs0deims"><path d="M347,158.2,307.9,174.09a56.32,56.32,0,0,0-104.36,42.37L164.4,232.35A98.55,98.55,0,0,1,347,158.2Z" style="fill: rgb(255, 255, 255); opacity: 0.6; transform-origin: 252.331px 165.169px;" class="animable"></path></g><path d="M334,163.5,307.9,174.09a56.32,56.32,0,0,0-104.36,42.37l-26.09,10.6A84.48,84.48,0,1,1,334,163.5Z" style="fill: rgb(0, 255, 136); transform-origin: 252.617px 168.916px;" id="elr68wzbou3t" class="animable"></path><g id="eld8riompjlt5"><path d="M334,163.5,307.9,174.09a56.32,56.32,0,0,0-104.36,42.37l-26.09,10.6A84.48,84.48,0,1,1,334,163.5Z" style="fill: rgb(255, 255, 255); opacity: 0.7; transform-origin: 252.617px 168.916px;" class="animable"></path></g><path d="M320.94,168.8l-13,5.29a56.32,56.32,0,0,0-104.36,42.37l-13,5.3a70.4,70.4,0,1,1,130.45-53Z" style="fill: rgb(0, 255, 136); transform-origin: 253.212px 173.297px;" id="elmt1sedq3fji" class="animable"></path><g id="ele3zs9nr7zcd"><path d="M320.94,168.8l-13,5.29a56.32,56.32,0,0,0-104.36,42.37l-13,5.3a70.4,70.4,0,1,1,130.45-53Z" style="fill: rgb(255, 255, 255); opacity: 0.8; transform-origin: 253.212px 173.297px;" class="animable"></path></g><path d="M470.06,176.19H315.54s34.53-50,61.73-50,35.24,33.35,35.24,33.35,19.2-15.56,37-12.79S470.06,176.19,470.06,176.19Z" style="fill: rgb(0, 255, 136); transform-origin: 392.8px 151.19px;" id="eljzawhcle9d9" class="animable"></path><g id="el3ajqoljl5qk"><path d="M470.06,176.19H315.54s34.53-50,61.73-50,35.24,33.35,35.24,33.35,19.2-15.56,37-12.79S470.06,176.19,470.06,176.19Z" style="fill: rgb(255, 255, 255); opacity: 0.7; transform-origin: 392.8px 151.19px;" class="animable"></path></g><path d="M242.25,232.46H156s19.26-27.92,34.44-27.92,19.67,18.61,19.67,18.61,10.71-8.68,20.63-7.13S242.25,232.46,242.25,232.46Z" style="fill: rgb(0, 255, 136); transform-origin: 199.125px 218.5px;" id="eldtzhpscd0r" class="animable"></path><g id="elslkii0acub9"><path d="M242.25,232.46H156s19.26-27.92,34.44-27.92,19.67,18.61,19.67,18.61,10.71-8.68,20.63-7.13S242.25,232.46,242.25,232.46Z" style="fill: rgb(255, 255, 255); opacity: 0.9; transform-origin: 199.125px 218.5px;" class="animable"></path></g><path d="M196.82,244.63h-135s13.38-36.55,34-36.55,27,25.22,27,25.22,13.9-13.7,25.31-13.7,21.34,18.11,21.34,18.11S185.65,228,196.82,244.63Z" style="fill: rgb(0, 255, 136); transform-origin: 129.32px 226.355px;" id="elpo5uarci0j9" class="animable"></path><g id="elkxcps2rx65k"><path d="M196.82,244.63h-135s13.38-36.55,34-36.55,27,25.22,27,25.22,13.9-13.7,25.31-13.7,21.34,18.11,21.34,18.11S185.65,228,196.82,244.63Z" style="fill: rgb(255, 255, 255); opacity: 0.7; transform-origin: 129.32px 226.355px;" class="animable"></path></g><path d="M404.39,187.73h-135s13.39-36.55,34-36.55,27.05,25.23,27.05,25.23,13.89-13.71,25.31-13.71,21.34,18.12,21.34,18.12S393.22,171.08,404.39,187.73Z" style="fill: rgb(0, 255, 136); transform-origin: 336.89px 169.455px;" id="elll2572f75yr" class="animable"></path><g id="elre8oku2rkc9"><path d="M404.39,187.73h-135s13.39-36.55,34-36.55,27.05,25.23,27.05,25.23,13.89-13.71,25.31-13.71,21.34,18.12,21.34,18.12S393.22,171.08,404.39,187.73Z" style="fill: rgb(255, 255, 255); opacity: 0.9; transform-origin: 336.89px 169.455px;" class="animable"></path></g></g><g id="freepik--Floor--inject-52" class="animable" style="transform-origin: 250px 457px;"><path d="M69.27,457c115.79-.61,245.68-.62,361.46,0-115.79.62-245.68.61-361.46,0Z" style="fill: rgb(38, 50, 56); transform-origin: 250px 457px;" id="elav61lkh2tbk" class="animable"></path></g><g id="freepik--Plants--inject-52" class="animable" style="transform-origin: 250px 213.845px;"><path d="M415.6,100.21a53.56,53.56,0,0,0-9.43,3.75,48.46,48.46,0,0,0-4.36,2.53,42.08,42.08,0,0,0-4.05,3,39.21,39.21,0,0,0-6.85,7.3,44.67,44.67,0,0,0-4.85,8.89,30.3,30.3,0,0,1,3.93-9.51l.7-1.09c.24-.36.52-.7.77-1,.51-.71,1.09-1.36,1.64-2a38.73,38.73,0,0,1,3.75-3.61,37.7,37.7,0,0,1,8.84-5.4,36.7,36.7,0,0,1,4.87-1.75A29,29,0,0,1,415.6,100.21Z" style="fill: rgb(69, 90, 100); transform-origin: 400.83px 112.945px;" id="el6dloccowk0p" class="animable"></path><path d="M427.31,98.38c.39,3-9.72,7.42-11.48,1.84S426.92,95.33,427.31,98.38Z" style="fill: rgb(0, 255, 136); transform-origin: 421.493px 99.4715px;" id="elo2yumpfslh" class="animable"></path><path d="M421.49,112.53c-.68,2.74-10.79,3.12-10.43-2.25S422.17,109.8,421.49,112.53Z" style="fill: rgb(0, 255, 136); transform-origin: 416.286px 111.178px;" id="el4accbqzlf53" class="animable"></path><path d="M419.1,95.9c.78.21-2.16,3.37-2.16,3.37s5-1,5.3-.14-5,2-5,2,2.82.88,2.69,1.74-4.53-.45-5.16-2.53S418.25,95.67,419.1,95.9Z" style="fill: rgb(69, 90, 100); transform-origin: 418.478px 99.5117px;" id="elzsbkfnc3r4l" class="animable"></path><path d="M413.38,114.31c.8-.12-1.78-3.58-1.78-3.58s4.86,1.48,5.25.71-4.76-2.57-4.76-2.57,2.89-.57,2.86-1.44-4.55,0-5.41,2S412.52,114.44,413.38,114.31Z" style="fill: rgb(69, 90, 100); transform-origin: 413.143px 110.704px;" id="el3lk56bw6uch" class="animable"></path><path d="M410.65,109.25c-2.63.18-5.14.32-7.67.57-1.26.12-2.52.25-3.79.41s-2.54.34-3.87.43a16.34,16.34,0,0,1,3.64-1.53,20.6,20.6,0,0,1,3.88-.74,21,21,0,0,1,4,0A13.77,13.77,0,0,1,410.65,109.25Z" style="fill: rgb(69, 90, 100); transform-origin: 402.985px 109.477px;" id="eloqxhjycunmr" class="animable"></path><path d="M65.33,250.79a53.6,53.6,0,0,0,6.94,7.41,49.28,49.28,0,0,0,3.94,3.14A42.67,42.67,0,0,0,80.45,264a39.2,39.2,0,0,0,9.3,3.71,44.84,44.84,0,0,0,10,1.28,30.41,30.41,0,0,1-10.29-.19l-1.28-.26c-.42-.09-.83-.22-1.25-.33-.85-.22-1.66-.52-2.49-.79a38.86,38.86,0,0,1-4.73-2.17A37.46,37.46,0,0,1,71.51,259a38.13,38.13,0,0,1-3.41-3.89A28.91,28.91,0,0,1,65.33,250.79Z" style="fill: rgb(69, 90, 100); transform-origin: 82.54px 260.064px;" id="elklyvl32trr" class="animable"></path><path d="M59.36,240.56c2.69-1.48,10.46,6.34,5.9,10S56.67,242,59.36,240.56Z" style="fill: rgb(0, 255, 136); transform-origin: 62.5795px 245.808px;" id="elfvb2k20omz5" class="animable"></path><path d="M74.66,240.81c2.8-.36,6.84,8.91,1.71,10.54S71.87,241.18,74.66,240.81Z" style="fill: rgb(0, 255, 136); transform-origin: 75.682px 246.152px;" id="el0n3w8rs54iop" class="animable"></path><path d="M60.05,249.1c-.09-.8,3.92.78,3.92.78s-2.7-4.3-2.06-4.88,3.73,3.93,3.73,3.93-.21-2.94.64-3.14,1.23,4.38-.48,5.73S60.14,250,60.05,249.1Z" style="fill: rgb(69, 90, 100); transform-origin: 63.5244px 248.412px;" id="elae15ak13br4" class="animable"></path><path d="M79.27,247.71c-.4-.69-2.68,3-2.68,3s-.39-5.07-1.26-5.15-.65,5.37-.65,5.37-1.59-2.49-2.39-2.14,1.62,4.26,3.8,4.32S79.71,248.47,79.27,247.71Z" style="fill: rgb(69, 90, 100); transform-origin: 75.7413px 249.335px;" id="eljd3g49fq44" class="animable"></path><path d="M75.55,252.1c1.13,2.38,2.18,4.67,3.33,6.94.58,1.13,1.16,2.26,1.77,3.38s1.24,2.24,1.81,3.44A16.37,16.37,0,0,1,79.71,263a19.4,19.4,0,0,1-2.1-3.35A21.06,21.06,0,0,1,76.16,256,14.37,14.37,0,0,1,75.55,252.1Z" style="fill: rgb(69, 90, 100); transform-origin: 79.005px 258.98px;" id="elwb689t2mmz8" class="animable"></path><path d="M411.89,327.75a53.68,53.68,0,0,1-9.68-3.06,49.79,49.79,0,0,1-4.53-2.2,41.65,41.65,0,0,1-4.26-2.67,39.11,39.11,0,0,1-7.36-6.78,45.18,45.18,0,0,1-5.49-8.51,30.35,30.35,0,0,0,4.61,9.2l.79,1c.26.35.56.66.84,1,.56.67,1.18,1.28,1.78,1.9a35.36,35.36,0,0,0,13.22,8.08,39.12,39.12,0,0,0,5,1.39A29.26,29.26,0,0,0,411.89,327.75Z" style="fill: rgb(69, 90, 100); transform-origin: 396.23px 316.14px;" id="ela8rs9tnc11c" class="animable"></path><path d="M423.7,328.72c.17-3.07-10.23-6.7-11.58-1S423.53,331.78,423.7,328.72Z" style="fill: rgb(0, 255, 136); transform-origin: 417.861px 328.115px;" id="elyl1u72123ni" class="animable"></path><path d="M416.86,315c-.88-2.67-11-2.32-10.24,3S417.74,317.7,416.86,315Z" style="fill: rgb(0, 255, 136); transform-origin: 411.746px 316.789px;" id="elfj3x139m4n" class="animable"></path><path d="M415.7,331.78c.75-.26-2.4-3.2-2.4-3.2s5,.58,5.29-.25-5.15-1.66-5.15-1.66,2.74-1.09,2.55-1.94-4.48.79-5,2.91S414.87,332.07,415.7,331.78Z" style="fill: rgb(69, 90, 100); transform-origin: 414.774px 328.153px;" id="el5hgbkjg8lfu" class="animable"></path><path d="M408.65,313.84c.8.07-1.51,3.71-1.51,3.71s4.73-1.84,5.18-1.09-4.57,2.9-4.57,2.9,2.93.36,3,1.23-4.54.38-5.54-1.56S407.78,313.77,408.65,313.84Z" style="fill: rgb(69, 90, 100); transform-origin: 408.692px 317.422px;" id="ela15p4jro6hd" class="animable"></path><path d="M406.3,319.09c-2.64,0-5.16.06-7.7,0-1.27,0-2.53-.06-3.81-.13s-2.55-.15-3.89-.15a16.08,16.08,0,0,0,3.75,1.26,19.79,19.79,0,0,0,3.92.45,20,20,0,0,0,3.94-.28A14,14,0,0,0,406.3,319.09Z" style="fill: rgb(69, 90, 100); transform-origin: 398.6px 319.669px;" id="eli5n2f5yiacd" class="animable"></path><path d="M383.44,247a53.34,53.34,0,0,1-3.66,9.47c-.77,1.5-1.58,3-2.49,4.39a40.46,40.46,0,0,1-2.93,4.08,39.18,39.18,0,0,1-7.23,6.92,44.89,44.89,0,0,1-8.85,4.93,30.57,30.57,0,0,0,9.48-4l1.08-.72c.36-.25.69-.52,1-.78.71-.51,1.35-1.1,2-1.66a35.58,35.58,0,0,0,8.9-12.68,38.61,38.61,0,0,0,1.7-4.88A29.11,29.11,0,0,0,383.44,247Z" style="fill: rgb(69, 90, 100); transform-origin: 370.86px 261.895px;" id="elgnq3rtqd1me" class="animable"></path><path d="M385.16,235.31c-3.05-.36-7.34,9.79-1.73,11.5S388.21,235.68,385.16,235.31Z" style="fill: rgb(0, 255, 136); transform-origin: 384.126px 241.134px;" id="elr04g82bqa2r" class="animable"></path><path d="M371.06,241.27c-2.73.71-3,10.81,2.35,10.41S373.79,240.56,371.06,241.27Z" style="fill: rgb(0, 255, 136); transform-origin: 372.471px 246.464px;" id="el0n3ep4l25r2s" class="animable"></path><path d="M387.71,243.5c-.21-.78-3.34,2.19-3.34,2.19s.89-5,.08-5.3-2,5-2,5-.91-2.81-1.77-2.68.5,4.53,2.59,5.14S388,244.34,387.71,243.5Z" style="fill: rgb(69, 90, 100); transform-origin: 384.075px 244.145px;" id="el5u0rs35332r" class="animable"></path><path d="M369.36,249.39c.11-.79,3.6,1.75,3.6,1.75s-1.53-4.85-.76-5.24,2.61,4.73,2.61,4.73.55-2.9,1.42-2.87.08,4.55-1.91,5.42S369.23,250.26,369.36,249.39Z" style="fill: rgb(69, 90, 100); transform-origin: 372.968px 249.594px;" id="el8mh11g4rux7" class="animable"></path><path d="M374.45,252.07c-.15,2.63-.27,5.15-.5,7.68-.11,1.26-.22,2.53-.37,3.8s-.32,2.54-.4,3.87a15.93,15.93,0,0,0,1.5-3.66,20.48,20.48,0,0,0,.7-3.89,20.85,20.85,0,0,0,0-4A14.2,14.2,0,0,0,374.45,252.07Z" style="fill: rgb(69, 90, 100); transform-origin: 374.328px 259.745px;" id="elda6kfihdtpq" class="animable"></path><path d="M352.81,279.3a85.1,85.1,0,0,0,20.9-11.56l1.18-.91c.39-.31.76-.64,1.15-1l1.14-1,.57-.48.54-.51c.73-.68,1.46-1.35,2.18-2l2-2.17c2.65-2.95,5-6.18,7.41-9.38s4.79-6.43,7.33-9.55a71.59,71.59,0,0,1,8.28-8.78,48.22,48.22,0,0,1,9.94-6.83,60.85,60.85,0,0,1,11.24-4.26,65.59,65.59,0,0,0-11,4.7,47.49,47.49,0,0,0-9.66,7,78.17,78.17,0,0,0-8.06,8.8c-2.49,3.11-4.87,6.34-7.25,9.55s-4.8,6.43-7.52,9.43l-2.11,2.17c-.73.7-1.48,1.37-2.23,2.05l-.55.51-.59.48-1.17,1-1.18.94-1.22.89A75.27,75.27,0,0,1,352.81,279.3Z" style="fill: rgb(69, 90, 100); transform-origin: 389.74px 250.085px;" id="eln5ge1hamj1l" class="animable"></path><path d="M388.28,253.37a30.21,30.21,0,0,1,5.77-4.2,43.12,43.12,0,0,1,6.48-3.07,43.61,43.61,0,0,1,6.89-2c1.17-.27,2.36-.4,3.54-.56.59-.09,1.18-.11,1.78-.15s1.19-.07,1.78-.09l-1.74.37c-.58.12-1.17.2-1.74.36-1.15.27-2.31.51-3.44.84l-.85.23c-.28.08-.57.14-.85.23l-1.68.53c-.57.16-1.12.36-1.67.55s-1.12.37-1.66.6l-1.65.63-1.62.69c-1.08.47-2.14,1-3.19,1.49A56,56,0,0,0,388.28,253.37Z" style="fill: rgb(69, 90, 100); transform-origin: 401.4px 248.335px;" id="elbtlxntmht9r" class="animable"></path><path d="M414.44,253.08l-3.92-1.64c-.65-.27-1.29-.54-1.95-.79l-1-.39-1-.37c-1.31-.47-2.62-.94-4-1.32a34.19,34.19,0,0,0-4.12-.88,14.1,14.1,0,0,1,4.3.11,23.83,23.83,0,0,1,4.15,1.14,30.42,30.42,0,0,1,3.89,1.79A23.49,23.49,0,0,1,414.44,253.08Z" style="fill: rgb(69, 90, 100); transform-origin: 406.445px 250.328px;" id="el4zhbinfbrag" class="animable"></path><path d="M394.73,270.55q-2.67-.84-5.37-1.49c-.9-.2-1.8-.41-2.71-.57s-1.81-.32-2.72-.42a31.39,31.39,0,0,0-5.48-.24,25.2,25.2,0,0,0-2.74.29,24.16,24.16,0,0,0-2.71.64,13.6,13.6,0,0,1,2.6-1.12,17.18,17.18,0,0,1,2.78-.6,22.44,22.44,0,0,1,2.84-.17c.95,0,1.89.09,2.83.19a31.29,31.29,0,0,1,5.52,1.24A26.62,26.62,0,0,1,394.73,270.55Z" style="fill: rgb(69, 90, 100); transform-origin: 383.865px 268.71px;" id="el7ppgs88ozgr" class="animable"></path><path d="M396.76,258.49c-2,.69-3.92,1.38-5.86,2.11l-1.44.56-1.44.57c-1,.39-1.92.76-2.87,1.18-1.9.79-3.77,1.67-5.63,2.57l-1.39.69-1.37.72-.69.36-.68.38-1.38.73c.4-.32.81-.65,1.23-1l.62-.48.64-.44,1.31-.88,1.34-.8.68-.4.69-.37c.46-.24.92-.5,1.39-.73.94-.45,1.89-.9,2.85-1.31a56.73,56.73,0,0,1,5.89-2.13A41.44,41.44,0,0,1,396.76,258.49Z" style="fill: rgb(69, 90, 100); transform-origin: 385.385px 263.425px;" id="elh2p4emindkh" class="animable"></path><path d="M412.43,219.59a69.73,69.73,0,0,0-5.37,5.51,68.69,68.69,0,0,0-4.72,6,65.64,65.64,0,0,0-4,6.48c-1.26,2.22-2.3,4.56-3.37,6.91a39.63,39.63,0,0,1,2.67-7.27c.52-1.19,1.19-2.3,1.81-3.44.32-.57.69-1.1,1-1.65l.53-.82.55-.8c.39-.52.75-1.06,1.16-1.57l1.2-1.52c.85-1,1.7-2,2.62-2.88A35.76,35.76,0,0,1,412.43,219.59Z" style="fill: rgb(69, 90, 100); transform-origin: 403.7px 232.04px;" id="elrzgljhg35x" class="animable"></path><path d="M399.83,220.29a20.4,20.4,0,0,1,.73,3.94c.07.67.09,1.34.11,2,0,.33,0,.67,0,1s0,.67,0,1a23.28,23.28,0,0,1-.57,4,15.68,15.68,0,0,1-1.4,3.77c.24-1.32.47-2.6.62-3.91s.27-2.59.34-3.9c0-.65.07-1.3.09-2s0-1.31,0-2Z" style="fill: rgb(69, 90, 100); transform-origin: 399.685px 228.145px;" id="elka4bvgcfb2c" class="animable"></path><path d="M441.44,218.39c1.43,6.37-20.78,4.64-20.78,4.64S440.08,212.27,441.44,218.39Z" style="fill: rgb(69, 90, 100); transform-origin: 431.083px 219.876px;" id="elw38ol704d19" class="animable"></path><path d="M433,239.07c1.42,6.38-20.78,4.64-20.78,4.64S431.65,233,433,239.07Z" style="fill: rgb(69, 90, 100); transform-origin: 422.643px 240.567px;" id="elddzvs5mdjt8" class="animable"></path><path d="M407.42,257.25c1.42,6.37-20.78,4.64-20.78,4.64S406.05,251.13,407.42,257.25Z" style="fill: rgb(69, 90, 100); transform-origin: 397.063px 258.736px;" id="el0l4hfeboswm" class="animable"></path><path d="M419.61,230c4.6,4.64-15.11,15-15.11,15S415.2,225.57,419.61,230Z" style="fill: rgb(69, 90, 100); transform-origin: 412.403px 237.172px;" id="elej3s31kr5ou" class="animable"></path><path d="M388,277.56c-1.53,6.35-20.69-5-20.69-5S389.49,271.46,388,277.56Z" style="fill: rgb(69, 90, 100); transform-origin: 377.691px 275.987px;" id="elxsu1lh6kwl" class="animable"></path><path d="M397.41,273.58a2.81,2.81,0,1,1,.36-4A2.81,2.81,0,0,1,397.41,273.58Z" style="fill: rgb(0, 255, 136); transform-origin: 395.632px 271.404px;" id="elt57tc7tt95" class="animable"></path><path d="M418,255.83a2.81,2.81,0,1,1,.36-4A2.82,2.82,0,0,1,418,255.83Z" style="fill: rgb(0, 255, 136); transform-origin: 416.22px 253.654px;" id="elxqraly98fpr" class="animable"></path><path d="M401.24,222.05a2.81,2.81,0,1,1,.35-4A2.82,2.82,0,0,1,401.24,222.05Z" style="fill: rgb(0, 255, 136); transform-origin: 399.454px 219.879px;" id="elauzt0hhntv6" class="animable"></path><path d="M415.38,220.54a2.81,2.81,0,1,1,.36-4A2.81,2.81,0,0,1,415.38,220.54Z" style="fill: rgb(0, 255, 136); transform-origin: 413.602px 218.364px;" id="elfgfritoo0n6" class="animable"></path><path d="M181.23,275.47a79.46,79.46,0,0,0-5-10.87,77.84,77.84,0,0,0-6.52-10l-.9-1.19-1-1.14-1-1.15-.48-.57-.51-.54c-.69-.72-1.36-1.46-2-2.17l-2.16-2c-2.95-2.64-6.18-5-9.39-7.41s-6.43-4.78-9.55-7.32a73.15,73.15,0,0,1-8.78-8.29,48.57,48.57,0,0,1-6.82-9.94,60.61,60.61,0,0,1-4.27-11.24,64.92,64.92,0,0,0,4.71,11,48,48,0,0,0,7,9.65,77.23,77.23,0,0,0,8.8,8.06c3.12,2.5,6.34,4.87,9.56,7.26s6.43,4.79,9.43,7.51l2.17,2.11c.69.73,1.36,1.49,2,2.23l.51.56.48.58.95,1.17c.32.4.64.78.94,1.18l.89,1.22A75.69,75.69,0,0,1,181.23,275.47Z" style="fill: rgb(69, 90, 100); transform-origin: 152.04px 238.555px;" id="el3ko4bq3kd72" class="animable"></path><path d="M155.29,240a31,31,0,0,1-4.2-5.78,43.07,43.07,0,0,1-3.06-6.48,44.74,44.74,0,0,1-2-6.89c-.26-1.16-.4-2.35-.56-3.53-.08-.59-.11-1.19-.15-1.79s-.06-1.18-.08-1.78c.13.59.25,1.17.36,1.75s.21,1.16.36,1.73c.28,1.15.51,2.31.84,3.44l.24.85a8.19,8.19,0,0,0,.23.85l.52,1.69c.16.56.37,1.11.56,1.67s.37,1.11.6,1.65l.63,1.65.69,1.62c.46,1.08,1,2.14,1.49,3.2A58.55,58.55,0,0,0,155.29,240Z" style="fill: rgb(69, 90, 100); transform-origin: 150.265px 226.875px;" id="elpfbkp9ez0m" class="animable"></path><path d="M155,213.84l-1.64,3.92c-.26.65-.54,1.3-.79,2l-.39,1-.37,1c-.47,1.31-.94,2.63-1.31,4a34.61,34.61,0,0,0-.88,4.12,13.44,13.44,0,0,1,.11-4.29,22.76,22.76,0,0,1,1.14-4.15,30.5,30.5,0,0,1,1.78-3.9A24.27,24.27,0,0,1,155,213.84Z" style="fill: rgb(69, 90, 100); transform-origin: 152.249px 221.86px;" id="el1wx9h1ets9e" class="animable"></path><path d="M172.47,233.55c-.56,1.79-1.05,3.57-1.48,5.37-.21.9-.42,1.8-.57,2.71s-.32,1.81-.43,2.72a32.44,32.44,0,0,0-.24,5.48c.06.92.15,1.83.3,2.74a23.66,23.66,0,0,0,.64,2.71,14.21,14.21,0,0,1-1.13-2.59,18.86,18.86,0,0,1-.6-2.78,22.69,22.69,0,0,1-.16-2.85,26.9,26.9,0,0,1,.19-2.83,30.42,30.42,0,0,1,1.24-5.52A26.58,26.58,0,0,1,172.47,233.55Z" style="fill: rgb(69, 90, 100); transform-origin: 170.635px 244.415px;" id="elpclylja5p4" class="animable"></path><path d="M160.42,231.52q1,3,2.11,5.86c.19.48.37,1,.55,1.45l.57,1.44c.39.95.76,1.92,1.19,2.86.79,1.9,1.67,3.77,2.57,5.63l.69,1.39.72,1.37.35.7.38.67c.25.46.5.92.74,1.38-.33-.4-.65-.81-1-1.22l-.48-.63-.45-.64-.87-1.3-.81-1.35-.4-.67-.36-.7c-.25-.46-.5-.92-.73-1.39-.46-.94-.91-1.88-1.31-2.85a55.9,55.9,0,0,1-2.13-5.89A41.16,41.16,0,0,1,160.42,231.52Z" style="fill: rgb(69, 90, 100); transform-origin: 165.355px 242.895px;" id="elhtfey6oz72a" class="animable"></path><path d="M121.52,215.85A70.71,70.71,0,0,0,133,225.94a64.63,64.63,0,0,0,6.49,4.05c2.22,1.27,4.56,2.3,6.91,3.38a39.4,39.4,0,0,1-7.27-2.68c-1.19-.52-2.31-1.19-3.45-1.81-.56-.32-1.09-.69-1.65-1l-.82-.52-.79-.56c-.52-.39-1.06-.75-1.57-1.15l-1.52-1.21c-1-.85-2-1.7-2.88-2.61A35.27,35.27,0,0,1,121.52,215.85Z" style="fill: rgb(69, 90, 100); transform-origin: 133.96px 224.61px;" id="el9e1u8txfeq5" class="animable"></path><path d="M122.22,228.45a20.26,20.26,0,0,1,3.94-.73c.67-.06,1.33-.09,2-.11.34,0,.67,0,1,0s.67,0,1,0a23.37,23.37,0,0,1,4,.56,15.68,15.68,0,0,1,3.77,1.4c-1.33-.23-2.61-.46-3.91-.62s-2.6-.26-3.9-.33c-.65,0-1.31-.08-2-.09s-1.31,0-2-.06Z" style="fill: rgb(69, 90, 100); transform-origin: 130.075px 228.59px;" id="elmbmi0b8bhu" class="animable"></path><path d="M120.32,186.84c6.37-1.42,4.63,20.78,4.63,20.78S114.2,188.21,120.32,186.84Z" style="fill: rgb(69, 90, 100); transform-origin: 121.802px 197.197px;" id="el3hjr9sgpgr7" class="animable"></path><path d="M141,195.27c6.37-1.43,4.64,20.77,4.64,20.77S134.88,196.63,141,195.27Z" style="fill: rgb(69, 90, 100); transform-origin: 142.486px 205.622px;" id="elxsrrvqsick7" class="animable"></path><path d="M159.17,220.86c6.38-1.42,4.64,20.78,4.64,20.78S153.05,222.23,159.17,220.86Z" style="fill: rgb(69, 90, 100); transform-origin: 160.657px 231.217px;" id="el76kpjdn7zz2" class="animable"></path><path d="M132,208.67c4.64-4.6,15,15.11,15,15.11S127.5,213.08,132,208.67Z" style="fill: rgb(69, 90, 100); transform-origin: 139.163px 215.877px;" id="eljde4nmzuasp" class="animable"></path><path d="M179.48,240.26c6.35,1.53-5,20.7-5,20.7S173.39,238.79,179.48,240.26Z" style="fill: rgb(69, 90, 100); transform-origin: 177.907px 250.575px;" id="el1vpf40aih3b" class="animable"></path><path d="M175.51,230.87a2.81,2.81,0,1,1-4-.36A2.82,2.82,0,0,1,175.51,230.87Z" style="fill: rgb(0, 255, 136); transform-origin: 173.334px 232.65px;" id="el6rt2bket19c" class="animable"></path><path d="M157.75,210.29a2.81,2.81,0,1,1-4-.36A2.81,2.81,0,0,1,157.75,210.29Z" style="fill: rgb(0, 255, 136); transform-origin: 155.574px 212.068px;" id="eli4vfo62j6ud" class="animable"></path><path d="M124,227.05a2.81,2.81,0,1,1-4-.36A2.82,2.82,0,0,1,124,227.05Z" style="fill: rgb(0, 255, 136); transform-origin: 121.824px 228.83px;" id="elei4xshrty28" class="animable"></path><path d="M122.47,212.9a2.81,2.81,0,1,1-4-.36A2.82,2.82,0,0,1,122.47,212.9Z" style="fill: rgb(0, 255, 136); transform-origin: 120.294px 214.68px;" id="elig28r9vqiu" class="animable"></path></g><g id="freepik--Unicorn--inject-52" class="animable" style="transform-origin: 250.246px 269.441px;"><path d="M372.21,135.12c3.13-.49,54.53-62.08,54.31-65.29s-66.06,55-65.95,57.09S367.22,135.9,372.21,135.12Z" style="fill: rgb(0, 255, 136); transform-origin: 393.545px 102.442px;" id="eloat3zmcd8i" class="animable"></path><g id="el97umrfqont"><path d="M372.21,135.12c3.13-.49,54.53-62.08,54.31-65.29s-66.06,55-65.95,57.09S367.22,135.9,372.21,135.12Z" style="fill: rgb(255, 255, 255); opacity: 0.5; transform-origin: 393.545px 102.442px;" class="animable"></path></g><path d="M360.65,127.31c2.7-1,5.77-.44,8.38.6s4.84,2.6,7.73,3c-2.85.4-5.56-1-8.1-2.11a17.69,17.69,0,0,0-8-1.53Z" style="fill: rgb(0, 255, 136); transform-origin: 368.705px 128.883px;" id="elh8wdayr7135" class="animable"></path><path d="M367.12,120.09a14.41,14.41,0,0,1,8.41.64c2.68.94,4.93,2.48,7.78,3-2.85.3-5.51-1.17-8.11-2.07a25.33,25.33,0,0,0-8.08-1.58Z" style="fill: rgb(0, 255, 136); transform-origin: 375.215px 121.755px;" id="elf8d5893kjz" class="animable"></path><path d="M374.8,113a14.87,14.87,0,0,1,7.7.7c2.48.8,4.58,2.2,7.13,2.81-2.62.2-5-1.1-7.45-1.86A32,32,0,0,0,374.8,113Z" style="fill: rgb(0, 255, 136); transform-origin: 382.215px 114.655px;" id="el5nhrwgisxw7" class="animable"></path><path d="M382.65,105.89a11.23,11.23,0,0,1,6.94.44c2.21.76,4,2.19,6.26,2.86-2.36.14-4.46-1.22-6.6-1.92a22.06,22.06,0,0,0-6.6-1.38Z" style="fill: rgb(0, 255, 136); transform-origin: 389.25px 107.368px;" id="el0022qk2w9bprb" class="animable"></path><path d="M390.58,98.86c4.09-1.14,7.91,1.24,11.41,3-2,0-3.85-1.06-5.72-1.64a26.7,26.7,0,0,0-5.69-1.36Z" style="fill: rgb(0, 255, 136); transform-origin: 396.285px 100.211px;" id="el61d14jucswg" class="animable"></path><path d="M398.59,91.87a9.77,9.77,0,0,1,5,.4,20.67,20.67,0,0,1,4.48,2.19,9.61,9.61,0,0,1-2.46-.51c-2.28-.71-4.66-1.51-7-2.08Z" style="fill: rgb(0, 255, 136); transform-origin: 403.33px 93.0863px;" id="el3mqr5fqxx62" class="animable"></path><path d="M406.69,84.93a4.36,4.36,0,0,1,4.05,0c1.27.54,2.11,1.54,3.35,2.08a3.27,3.27,0,0,1-2-.35,12.57,12.57,0,0,0-5.38-1.72Z" style="fill: rgb(0, 255, 136); transform-origin: 410.39px 85.7372px;" id="eljz0hjt94mb" class="animable"></path><path d="M420,79.48c-.82.61-1.94.07-2.73-.28a23.87,23.87,0,0,0-2.32-1.15,2.28,2.28,0,0,1,1.43-.19c1.42.17,2.3,1.25,3.62,1.62Z" style="fill: rgb(0, 255, 136); transform-origin: 417.475px 78.7877px;" id="eltlwkimijr1" class="animable"></path><path d="M425.5,71.86a1.24,1.24,0,0,1-1.93-.56,1.25,1.25,0,0,1,1.93.56Z" style="fill: rgb(0, 255, 136); transform-origin: 424.535px 71.5831px;" id="elstnqw0oakwd" class="animable"></path><path d="M175.08,251.76S163,240,158.59,237.92s-39.62-3.79-53.08,1S68,285.31,69.87,308.25,94.14,335.55,96,356.59s-9.29,30.33-16.3,29.57-9.1-8.15-7-16.49c0,0-6.35,6.57-4.36,15.54,1.14,5.12,10.05,11.94,17.82,11.38s35.31-19.2,42.85-38.68c2.27-5.87.94-27.48-.57-32.41s-11.76-22.75-11.76-27.87,1.7-25,4.83-28.81,25.5-15,32.9-15.17,13.65,4.55,13.65,4.55Z" style="fill: rgb(0, 255, 136); transform-origin: 121.517px 316.23px;" id="el0cj4xtug37h8" class="animable"></path><g id="elsa1lwscgn3k"><path d="M121.52,268.82c-3.12,3.79-4.82,23.7-4.82,28.82s10.24,22.93,11.75,27.86,2.84,26.54.57,32.42a38.29,38.29,0,0,1-2.16,4.61,33.24,33.24,0,0,0-.62-24.71c-2.41-5.68-16.82-17.56-19.46-24.39S108.42,278,111.06,272s15.93-16.3,19.09-18.19,23.63-3.54,27.17-2.15c2.93,1.16,8.34,4.88,10.15,6.15-1.74-1.15-7-4.29-13.05-4.13C147,253.85,124.65,265,121.52,268.82Z" style="opacity: 0.1; transform-origin: 136.711px 306.837px;" class="animable"></path></g><g id="elvqnbo9xydk"><path d="M96.92,375.86c-2.79,4.3-9.2,8.06-11.54,9,6.06-3.22,12.08-12.41,10.65-28.29-1.9-21-24.26-25.4-26.16-48.34-1.42-17.31,11.92-45.28,24.33-60l0,0c-7.54,10.39-21.2,39.57-18.79,54.1s23.12,36.9,26,46.63S99.7,371.56,96.92,375.86Z" style="opacity: 0.1; transform-origin: 86.0455px 316.545px;" class="animable"></path></g><path d="M366,113.2,362.87,130c-37.91,8.59-18.95,19.33-45.55,61.9S252.57,234,252.57,234c29.24-7.35,39.36-30.53,44.75-51.85L305,188l-7.17-7.94c.54-2.27,1-4.52,1.5-6.71l8.79,9.83-7.46-16.09c5.27-23.84,12.93-41.44,37.26-51.08A50.9,50.9,0,0,1,366,113.2Z" style="fill: rgb(0, 255, 136); transform-origin: 309.285px 173.184px;" id="eli76hfepd8o" class="animable"></path><g id="elzf9rtl17aj"><path d="M364.35,122.07,362.86,130c-37.91,8.59-18.95,19.33-45.55,61.9C291.15,233.68,253.86,234,252.59,234c28.82-2.88,49.33-31,54.43-43.26s6.15-37.74,11.81-48.22,22.78-17.29,29.59-19.94C353.06,120.82,360.24,121.47,364.35,122.07Z" style="opacity: 0.1; transform-origin: 308.47px 177.72px;" class="animable"></path></g><path d="M297.54,286.36s20.06,17.15,27.83,17.37,46.3-18.12,46.3-18.12-11.54,10.86-12,12.34.41,6.69-.43,7.36-5.33-.33-6.57-.6-4.45-2.53-6.91-2.17-24.13,13.66-26,26.24c-.49,3.26,32.48-3.95,34.61-4.73s11.25-1.31,12.43-2.71,3.74-6.1,5.61-8.06,41.41-31.56,43.71-33.86S422.67,277,424,272s-.53-16.29-7.58-19.22c-5-2.09-6.31.45-22.07,1-16.58.59-35.76-.08-37.86,1.14S297.54,286.36,297.54,286.36Z" style="fill: rgb(0, 255, 136); transform-origin: 360.97px 290.795px;" id="elingjtfodhsj" class="animable"></path><g id="eli49b558jdt"><path d="M297.54,286.36s20.06,17.15,27.83,17.37,46.3-18.12,46.3-18.12-11.54,10.86-12,12.34.41,6.69-.43,7.36-5.33-.33-6.57-.6-4.45-2.53-6.91-2.17-24.13,13.66-26,26.24c-.49,3.26,32.48-3.95,34.61-4.73s11.25-1.31,12.43-2.71,3.74-6.1,5.61-8.06,41.41-31.56,43.71-33.86S422.67,277,424,272s-.53-16.29-7.58-19.22c-5-2.09-6.31.45-22.07,1-16.58.59-35.76-.08-37.86,1.14S297.54,286.36,297.54,286.36Z" style="fill: rgb(255, 255, 255); opacity: 0.4; transform-origin: 360.97px 290.795px;" class="animable"></path></g><path d="M343.1,324.46a8.58,8.58,0,0,0,5.06,1.09c-10.12,2.2-28.74,5.68-28.37,3.22,1.88-12.58,23.54-25.86,26-26.23s5.66,1.9,6.91,2.17l.19,0C350.16,306.17,340.16,322.8,343.1,324.46Z" style="fill: rgb(0, 255, 136); transform-origin: 336.337px 316.057px;" id="eles05qbxl7h9" class="animable"></path><g id="eldaurp5l8794"><path d="M343.1,324.46a8.58,8.58,0,0,0,5.06,1.09c-10.12,2.2-28.74,5.68-28.37,3.22,1.88-12.58,23.54-25.86,26-26.23s5.66,1.9,6.91,2.17l.19,0C350.16,306.17,340.16,322.8,343.1,324.46Z" style="opacity: 0.3; transform-origin: 336.337px 316.057px;" class="animable"></path></g><path d="M154.12,293.56c-2.74,17.3,3.56,38.41,3.29,41.28s-3.09,12.88-6.08,15.58-17.5,9.05-18,10.48,1.5,13.33,1.44,16.61-2.86,19.59-4.64,22.57-12.88,3.78-14.94,4-4.5,13.4-6.28,13.94a7.75,7.75,0,0,1-4.8-.07c-1.18-.45-1.56-2.21-3.41-3.2s-15,4.48-23.08,23.87c-1.15,2.75-1.31,9.05-.42,9.29s26.29-12.6,26.81-13.19,4.28-2.8,5.16-3.5S137,417.8,140,414.94s17.61-35.69,21.22-39,47.44-12.42,53.58-21.15,6.77-31.06,4.35-38.56S158.94,263.12,154.12,293.56Z" style="fill: rgb(0, 255, 136); transform-origin: 148.547px 365.558px;" id="elr80u4bl4gjn" class="animable"></path><g id="elwfzdkgu9f9"><path d="M154.12,293.56c-2.74,17.3,3.56,38.41,3.29,41.28s-3.09,12.88-6.08,15.58-17.5,9.05-18,10.48,1.5,13.33,1.44,16.61-2.86,19.59-4.64,22.57-12.88,3.78-14.94,4-4.5,13.4-6.28,13.94a7.75,7.75,0,0,1-4.8-.07c-1.18-.45-1.56-2.21-3.41-3.2s-15,4.48-23.08,23.87c-1.15,2.75-1.31,9.05-.42,9.29s26.29-12.6,26.81-13.19,4.28-2.8,5.16-3.5S137,417.8,140,414.94s17.61-35.69,21.22-39,47.44-12.42,53.58-21.15,6.77-31.06,4.35-38.56S158.94,263.12,154.12,293.56Z" style="fill: rgb(255, 255, 255); opacity: 0.4; transform-origin: 148.547px 365.558px;" class="animable"></path></g><path d="M104,434.73c-.52.58-25.92,13.42-26.81,13.19s-.73-6.54.42-9.3c8.08-19.38,21.23-24.86,23.08-23.86s2.23,2.74,3.41,3.2c0,0-6.26,8.76-4.27,15C100.66,435.49,104,434.73,104,434.73Z" style="fill: rgb(0, 255, 136); transform-origin: 90.3598px 431.285px;" id="elbzr8stiekzq" class="animable"></path><g id="eln5ywnl8pdv9"><path d="M104,434.73c-.52.58-25.92,13.42-26.81,13.19s-.73-6.54.42-9.3c8.08-19.38,21.23-24.86,23.08-23.86s2.23,2.74,3.41,3.2c0,0-6.26,8.76-4.27,15C100.66,435.49,104,434.73,104,434.73Z" style="opacity: 0.3; transform-origin: 90.3598px 431.285px;" class="animable"></path></g><path d="M397,157.93c5.44,9.75,18.34,30.62,25.11,36.91,2.33,2.16,8.32,3,9.65,4.82s-1.83,5.65-1.67,7.82,1.75,11.14,1,12.55-7.4,5.57-9.73,5.57-7.89-3.66-8.89-3.49-4.08.91-5.24.16-19.95-19.7-21.61-20.45-20.12-.16-25.36-1.33-8.15-6-8.15-6-2,20,0,32.59,18.29,28.59,17.79,39.07-45,66.49-65.51,72.66c-29.26,8.81-72.16-2.49-79-1.83s-68.17-1.16-71.66-22.61,5-42.4,10.31-53.87,20.12-20.12,37.41-22.12,51.71-1,72-10.14S309.66,194.17,314,184.2s3.65-26.94,13.13-40.24,31.59-15.63,45.23-13.13S390.07,145.56,397,157.93Z" style="fill: rgb(0, 255, 136); transform-origin: 292.5px 236.065px;" id="eliz8asgfw5qa" class="animable"></path><g id="eldxf4shm0oz8"><path d="M397,157.93c5.44,9.75,18.34,30.62,25.11,36.91,2.33,2.16,8.32,3,9.65,4.82s-1.83,5.65-1.67,7.82,1.75,11.14,1,12.55-7.4,5.57-9.73,5.57-7.89-3.66-8.89-3.49-4.08.91-5.24.16-19.95-19.7-21.61-20.45-20.12-.16-25.36-1.33-8.15-6-8.15-6-2,20,0,32.59,18.29,28.59,17.79,39.07-45,66.49-65.51,72.66c-29.26,8.81-72.16-2.49-79-1.83s-68.17-1.16-71.66-22.61,5-42.4,10.31-53.87,20.12-20.12,37.41-22.12,51.71-1,72-10.14S309.66,194.17,314,184.2s3.65-26.94,13.13-40.24,31.59-15.63,45.23-13.13S390.07,145.56,397,157.93Z" style="fill: rgb(255, 255, 255); opacity: 0.8; transform-origin: 292.5px 236.065px;" class="animable"></path></g><g id="elhba3zox2eu7"><path d="M348.48,299.47c-14.46,17.63-32.91,36-44.14,39.36-22.75,6.85-53.76,1.54-69.62-.85,5.26.78,46.56,3.16,62-1.51S332.93,314.36,348.48,299.47Z" style="fill: rgb(0, 255, 136); opacity: 0.3; transform-origin: 291.6px 320.837px;" class="animable"></path></g><g id="elsggs97dce8h"><path d="M406.57,221.75c-3.47-3.16-19.47-19.24-21-19.93s-20.12-.16-25.36-1.33c-4.91-1.09-7.78-5.39-8.12-5.93l0-.05a19.06,19.06,0,0,1-1.51-16.44s6.57,17.71,12.66,19.71c4.42,1.45,22.4,1.77,23.73,2.38C388.08,200.68,402.53,217.13,406.57,221.75Z" style="fill: rgb(0, 255, 136); opacity: 0.3; transform-origin: 377.976px 199.91px;" class="animable"></path></g><path d="M152.88,304c.23,17.52,10,37.25,10.24,40.13s-.86,13.22-3.35,16.38-15.71,11.89-16,13.38,3.74,12.89,4.24,16.13.5,19.79-.75,23-12.06,5.9-14.05,6.48-2.16,14-3.82,14.8a7.8,7.8,0,0,1-4.74.75c-1.25-.25-1.92-1.91-3.91-2.58s-14,7-18.71,27.44c-.66,2.91.25,9.14,1.17,9.23s23.77-16.88,24.19-17.55,3.74-3.49,4.49-4.32,25.19-18,27.6-21.28,11.31-38.16,14.3-42.07S218.46,363.69,223,354s1.41-31.75-2.25-38.74S152.48,273.21,152.88,304Z" style="fill: rgb(0, 255, 136); transform-origin: 163.53px 380.336px;" id="elmad29ug3b9m" class="animable"></path><g id="elutomyvro9y7"><path d="M152.88,304c.23,17.52,10,37.25,10.24,40.13s-.86,13.22-3.35,16.38-15.71,11.89-16,13.38,3.74,12.89,4.24,16.13.5,19.79-.75,23-12.06,5.9-14.05,6.48-2.16,14-3.82,14.8a7.8,7.8,0,0,1-4.74.75c-1.25-.25-1.92-1.91-3.91-2.58s-14,7-18.71,27.44c-.66,2.91.25,9.14,1.17,9.23s23.77-16.88,24.19-17.55,3.74-3.49,4.49-4.32,25.19-18,27.6-21.28,11.31-38.16,14.3-42.07S218.46,363.69,223,354s1.41-31.75-2.25-38.74S152.48,273.21,152.88,304Z" style="fill: rgb(255, 255, 255); opacity: 0.8; transform-origin: 163.53px 380.336px;" class="animable"></path></g><path d="M127.51,451.52l-.08.12c-.42.67-23.28,17.63-24.19,17.54s-1.83-6.32-1.17-9.23c4.68-20.47,16.71-28.1,18.71-27.43s2.6,2.19,3.75,2.54c-.4.88-4.33,10-1.36,15.46C124.32,452.61,127,451.72,127.51,451.52Z" style="fill: rgb(0, 255, 136); transform-origin: 114.678px 450.83px;" id="elc01tr4ergs" class="animable"></path><g id="el9pn71l0acvc"><path d="M127.51,451.52l-.08.12c-.42.67-23.28,17.63-24.19,17.54s-1.83-6.32-1.17-9.23c4.68-20.47,16.71-28.1,18.71-27.43s2.6,2.19,3.75,2.54c-.4.88-4.33,10-1.36,15.46C124.32,452.61,127,451.72,127.51,451.52Z" style="opacity: 0.3; transform-origin: 114.678px 450.83px;" class="animable"></path></g><path d="M308.37,313.22s21.82,14.84,29.56,14.21,44-23.1,44-23.1-10.28,12.06-10.54,13.58,1.15,6.6.39,7.36-5.33.26-6.6.13-4.7-2-7.11-1.4-22.48,16.22-23,28.94c-.13,3.3,31.85-7.49,33.88-8.51s11-2.53,12.06-4.06,3-6.47,4.69-8.63,37.69-35.91,39.72-38.45,6.22-3.17,7-8.24-2.31-16.13-9.64-18.28c-5.2-1.52-6.22,1.14-21.83,3.43-16.42,2.4-35.55,3.84-37.5,5.28S308.37,313.22,308.37,313.22Z" style="fill: rgb(0, 255, 136); transform-origin: 370.454px 309.944px;" id="el30srfsf9rrd" class="animable"></path><g id="elo0w5mut6esd"><path d="M308.37,313.22s21.82,14.84,29.56,14.21,44-23.1,44-23.1-10.28,12.06-10.54,13.58,1.15,6.6.39,7.36-5.33.26-6.6.13-4.7-2-7.11-1.4-22.48,16.22-23,28.94c-.13,3.3,31.85-7.49,33.88-8.51s11-2.53,12.06-4.06,3-6.47,4.69-8.63,37.69-35.91,39.72-38.45,6.22-3.17,7-8.24-2.31-16.13-9.64-18.28c-5.2-1.52-6.22,1.14-21.83,3.43-16.42,2.4-35.55,3.84-37.5,5.28S308.37,313.22,308.37,313.22Z" style="fill: rgb(255, 255, 255); opacity: 0.8; transform-origin: 370.454px 309.944px;" class="animable"></path></g><path d="M359.1,346a8,8,0,0,0,4.28.44c-9.71,3.29-28.34,9-28.24,6.46.49-12.71,20.56-28.3,23-28.93s5.84,1.27,7.11,1.4l.92.09C363.77,326.84,356,344.79,359.1,346Z" style="fill: rgb(0, 255, 136); transform-origin: 350.655px 338.688px;" id="el4e8gtm3lhur" class="animable"></path><g id="elzwae17ai8gc"><path d="M359.1,346a8,8,0,0,0,4.28.44c-9.71,3.29-28.34,9-28.24,6.46.49-12.71,20.56-28.3,23-28.93s5.84,1.27,7.11,1.4l.92.09C363.77,326.84,356,344.79,359.1,346Z" style="opacity: 0.3; transform-origin: 350.655px 338.688px;" class="animable"></path></g><path d="M372,115.92c-8.08,6.54-8.42,26.16,7.21,28.26,5,.68,7.95-5.74,11.72-5.29s-3.4,7.29-.19,15.71c2.62,6.85,12.42,8.09,17.4,4,5.63-4.63,3.11-12.08,3.11-12.08s-.22,5.76-3,6.54-5.66-1.33-4.66-5.21,7.65-12.3,7-22-9.14-13.59-14.63-14.52C384.71,109.49,372,115.92,372,115.92Z" style="fill: rgb(0, 255, 136); transform-origin: 389.168px 135.969px;" id="elrlahcltsot9" class="animable"></path><g id="elrl6lkambuss"><path d="M406,153.05c-.58-.13-3-.77-3.78-5-.47-2.63,5.57-12.75,5-16.06s-4.13-11.54-11.56-13.53c-5.65-1.52-20.92,1.82-27.89,3.5a14.38,14.38,0,0,1,4.2-6.09s12.76-6.44,23.95-4.55c5.49.92,14,4.88,14.63,14.52s-6,18.07-7,22C402.83,150.64,404.13,152.52,406,153.05Z" style="opacity: 0.1; transform-origin: 389.181px 132.011px;" class="animable"></path></g><g id="el41jqdh6xokw"><path d="M397.46,160.45a9.81,9.81,0,0,1-6.77-5.85c-3.21-8.43,4-15.27.19-15.71s-6.68,6-11.72,5.29a15.54,15.54,0,0,1-5.73-1.88c3.84-2.13,12.55-6.82,15.12-6.87,3.32-.07,6.54,1.22,6.54,3.95S385.63,154.06,397.46,160.45Z" style="opacity: 0.1; transform-origin: 385.445px 147.939px;" class="animable"></path></g><path d="M353.17,139.86c.17-1.39-2.16-3.33-2.66-5.76a14.1,14.1,0,0,1,1.33-8.15c1.22-2.72,11.69-12.14,14.24-16,1.75-2.66,2.46-5.93,3.5-5.93,1.88,0-.45,24.94-.89,28.49s-4.21,6.43-4.21,6.43Z" style="fill: rgb(0, 255, 136); transform-origin: 360.342px 121.94px;" id="elhy590qhngvl" class="animable"></path><g id="ela16tsf5pyx7"><path d="M353.17,139.86c.17-1.39-2.16-3.33-2.66-5.76a14.1,14.1,0,0,1,1.33-8.15c1.22-2.72,11.69-12.14,14.24-16,1.75-2.66,2.46-5.93,3.5-5.93,1.88,0-.45,24.94-.89,28.49s-4.21,6.43-4.21,6.43Z" style="fill: rgb(255, 255, 255); opacity: 0.8; transform-origin: 360.342px 121.94px;" class="animable"></path></g><path d="M352.06,194.51c-6.86-7.71-3-19.53,3.41-26.27-.42,1.12-1,2.16-1.4,3.24-3.32,7.24-5.46,15.41-2,23Z" style="fill: rgb(0, 255, 136); transform-origin: 351.952px 181.375px;" id="elbh67mmeoio9" class="animable"></path><path d="M326.17,323.72a30.78,30.78,0,0,1-17.1-8.16,79,79,0,0,1,17.1,8.16Z" style="fill: rgb(0, 255, 136); transform-origin: 317.62px 319.64px;" id="elqxuedqcfzwr" class="animable"></path><path d="M366.36,274.56a50.41,50.41,0,0,1-6.51,11.67,51.19,51.19,0,0,1-8.92,9.95,171.84,171.84,0,0,1,15.43-21.62Z" style="fill: rgb(0, 255, 136); transform-origin: 358.645px 285.37px;" id="elr20k6khuvvj" class="animable"></path><path d="M359.69,290.59c1.23-4.19,2.81-8.06,4.34-12.15a23.33,23.33,0,0,1-4.34,12.15Z" style="fill: rgb(0, 255, 136); transform-origin: 361.86px 284.515px;" id="el9hj1vbtf7cv" class="animable"></path><path d="M381.17,305c3.2-2.52,6.95-4.69,10.3-6.95,3.12-2.6,5.74-5.87,8.84-8.53a15.82,15.82,0,0,1,2.92-2.15c-3.49,4.16-6.26,8.9-10.63,12.28A54.63,54.63,0,0,1,381.17,305Z" style="fill: rgb(0, 255, 136); transform-origin: 392.2px 296.185px;" id="el9j493gml8ws" class="animable"></path><path d="M225.36,337c-1.1-7.75-2.27-15.58-2.82-23.36A38.26,38.26,0,0,1,225.36,337Z" style="fill: rgb(0, 255, 136); transform-origin: 224.303px 325.32px;" id="elmr3e0p25om" class="animable"></path><path d="M226.69,317.05a20.06,20.06,0,0,1-1.56,11.63,113.56,113.56,0,0,1,1.56-11.63Z" style="fill: rgb(0, 255, 136); transform-origin: 226.044px 322.865px;" id="el7c5u3mbpe1b" class="animable"></path><path d="M350.34,131a14.77,14.77,0,0,0,1.67,5.49c.65.94,1.55,2.08,1.39,3.33a11,11,0,0,0-2.18-2.81,6.75,6.75,0,0,1-.88-6Z" style="fill: rgb(0, 255, 136); transform-origin: 351.708px 135.41px;" id="el2iffhh1mltm" class="animable"></path><path d="M359.82,135.43c-4.81-4.85-1.2-8.77,2.12-13a31.56,31.56,0,0,0,5.55-9.19,27.32,27.32,0,0,0,1.14-3.45,22.74,22.74,0,0,1-1.93,7.06c-1.85,4.51-5.93,7.81-8.15,12-1.19,2.24,0,4.61,1.27,6.55Z" style="fill: rgb(0, 255, 136); transform-origin: 363.06px 122.61px;" id="el2hazkwswtry" class="animable"></path><path d="M418.56,206.08c.46,2.7.09,5.72,1.17,8.14.14.17,0,0-.21.06s-.07,0-.07.06c.26-1.11-.5-2.88-.75-4.38,1.33,1.23,2.64,2.76,2.55,4.74a1.7,1.7,0,0,1-2.48,1.29c-2.61-2-1.39-7.38-.21-9.91Z" style="fill: rgb(0, 255, 136); transform-origin: 419.237px 211.133px;" id="elzb5evfegdm" class="animable"></path><path d="M380.54,175.92c2.45,3.83,5.85,12.34,10.9,12.33,2.24,0,3.95-1.67,5-3.59a14,14,0,0,0,1.38-3.32,9.24,9.24,0,0,1-2.49,7.07c-7.88,6.44-13.79-6.08-14.8-12.49Z" style="fill: rgb(38, 50, 56); transform-origin: 389.189px 183.06px;" id="elzulvc0a3mfm" class="animable"></path><path d="M189.5,282c-2.14-3.64-8.63-5.3-13.07-8.58-3.69-2.73-3.11-9.53-1.89-10.57,2.36-2,5.58.17,9.09,5.21,0,0-2-8.78,2-9.81,3-.79,6.48,4.28,6.07,9-.27,3.06-2,6.19-2.33,10.23A14.16,14.16,0,0,0,189.5,282Z" style="fill: rgb(0, 255, 136); transform-origin: 182.671px 270.084px;" id="el21gq6zv8deh" class="animable"></path><path d="M185.24,290.93c-2.16-1.12-5.84.07-9-.17-2.64-.2-4.44-3.69-4.17-4.58.53-1.71,2.78-1.63,6-.25,0,0-3.66-3.67-2-5.4,1.24-1.32,4.48.1,5.72,2.52.81,1.58.91,3.65,2,5.71A8.27,8.27,0,0,0,185.24,290.93Z" style="fill: rgb(0, 255, 136); transform-origin: 178.642px 285.478px;" id="el840glmyagk8" class="animable"></path><path d="M197.69,272.17c0-1.48-1.59-3.16-2.31-4.94a3.18,3.18,0,0,1,1.37-3.49c1.07-.17,1.63,1.07,1.75,3.21,0,0,1-3,2.39-2.54,1,.32,1.14,2.45.16,3.77-.64.86-1.74,1.47-2.57,2.61A4.83,4.83,0,0,0,197.69,272.17Z" style="fill: rgb(0, 255, 136); transform-origin: 198.496px 267.947px;" id="el9g1cj6tfiuh" class="animable"></path></g><g id="freepik--Sparkles--inject-52" class="animable" style="transform-origin: 250px 230.9px;"><polygon points="101.93 152.72 108.04 151.59 109.41 145.16 110.77 151.59 116.88 152.73 110.8 154.21 109.41 160.29 108.02 154.21 101.93 152.72" style="fill: rgb(0, 255, 136); transform-origin: 109.405px 152.725px;" id="elc1lvnj237qb" class="animable"></polygon><polygon points="101.47 261.66 107.58 260.53 108.94 254.09 110.31 260.53 116.42 261.67 110.33 263.15 108.94 269.24 107.55 263.15 101.47 261.66" style="fill: rgb(0, 255, 136); transform-origin: 108.945px 261.665px;" id="el4rzqg6zoa5n" class="animable"></polygon><polygon points="334.01 127.06 340.12 125.94 341.48 119.5 342.85 125.94 348.96 127.07 342.88 128.55 341.48 134.64 340.09 128.55 334.01 127.06" style="fill: rgb(0, 255, 136); transform-origin: 341.485px 127.07px;" id="eli0jx76vco7m" class="animable"></polygon><polygon points="375.86 305.46 381.97 304.33 383.33 297.89 384.7 304.33 390.81 305.47 384.72 306.95 383.33 313.03 381.94 306.95 375.86 305.46" style="fill: rgb(0, 255, 136); transform-origin: 383.335px 305.46px;" id="elf71usuy61vi" class="animable"></polygon><polygon points="234.78 68.52 240.88 67.39 242.25 60.95 243.61 67.39 249.72 68.52 243.64 70 242.25 76.09 240.86 70 234.78 68.52" style="fill: rgb(0, 255, 136); transform-origin: 242.25px 68.52px;" id="elzgpv87y2kg" class="animable"></polygon><polygon points="75.85 300.37 79.27 299.74 80.03 296.14 80.79 299.74 84.21 300.37 80.81 301.2 80.03 304.6 79.25 301.2 75.85 300.37" style="fill: rgb(0, 255, 136); transform-origin: 80.03px 300.37px;" id="eltsu5nesyn5" class="animable"></polygon><polygon points="278.33 124.85 281.75 124.22 282.51 120.62 283.27 124.22 286.69 124.86 283.29 125.69 282.51 129.09 281.73 125.69 278.33 124.85" style="fill: rgb(0, 255, 136); transform-origin: 282.51px 124.855px;" id="elj63d25smyr" class="animable"></polygon><polygon points="160.85 187.51 164.27 186.88 165.03 183.28 165.79 186.88 169.21 187.52 165.81 188.35 165.03 191.75 164.25 188.35 160.85 187.51" style="fill: rgb(0, 255, 136); transform-origin: 165.03px 187.515px;" id="el21owzftn3zq" class="animable"></polygon><polygon points="415.79 79.53 419.21 78.9 419.97 75.31 420.73 78.9 424.15 79.54 420.75 80.37 419.97 83.77 419.19 80.37 415.79 79.53" style="fill: rgb(0, 255, 136); transform-origin: 419.97px 79.54px;" id="elxnq63j4nrhd" class="animable"></polygon><polygon points="370.48 269.23 373.89 268.6 374.65 265 375.42 268.6 378.83 269.23 375.43 270.06 374.65 273.46 373.88 270.06 370.48 269.23" style="fill: rgb(0, 255, 136); transform-origin: 374.655px 269.23px;" id="el1guj17h3iya" class="animable"></polygon><polygon points="309.3 173.21 312.71 172.57 313.47 168.97 314.24 172.57 317.65 173.21 314.25 174.04 313.47 177.44 312.69 174.04 309.3 173.21" style="fill: rgb(0, 255, 136); transform-origin: 313.475px 173.205px;" id="eldbqcdu52ld" class="animable"></polygon><polygon points="337.31 342.2 340.72 341.57 341.48 337.97 342.25 341.57 345.66 342.21 342.26 343.04 341.48 346.44 340.71 343.04 337.31 342.2" style="fill: rgb(0, 255, 136); transform-origin: 341.485px 342.205px;" id="ela70d3ap6wu" class="animable"></polygon><polygon points="132.53 396.62 135.94 395.99 136.71 392.39 137.47 395.99 140.88 396.62 137.48 397.45 136.71 400.85 135.93 397.45 132.53 396.62" style="fill: rgb(0, 255, 136); transform-origin: 136.705px 396.62px;" id="elq0ohpjj9x7a" class="animable"></polygon><path d="M143,387.85a1,1,0,0,0,0-2A1,1,0,0,0,143,387.85Z" style="fill: rgb(0, 255, 136); transform-origin: 143px 386.85px;" id="el7w20kiss7ka" class="animable"></path><path d="M396,297.17a1,1,0,0,0,0-2A1,1,0,0,0,396,297.17Z" style="fill: rgb(0, 255, 136); transform-origin: 396px 296.17px;" id="el2551o32nwqu" class="animable"></path><path d="M141.78,98.12a1,1,0,0,0,0-2A1,1,0,0,0,141.78,98.12Z" style="fill: rgb(0, 255, 136); transform-origin: 141.78px 97.12px;" id="ell3x44eltvb" class="animable"></path><path d="M390.2,130.49a1,1,0,0,0,0-2A1,1,0,0,0,390.2,130.49Z" style="fill: rgb(0, 255, 136); transform-origin: 390.2px 129.49px;" id="elq30bsutf0md" class="animable"></path><path d="M102.78,287.31a.71.71,0,0,0,0-1.41A.71.71,0,0,0,102.78,287.31Z" style="fill: rgb(0, 255, 136); transform-origin: 102.78px 286.605px;" id="el22xz698xjxm" class="animable"></path><path d="M292.86,117.88a.7.7,0,0,0,0-1.4A.7.7,0,0,0,292.86,117.88Z" style="fill: rgb(0, 255, 136); transform-origin: 292.86px 117.18px;" id="el1wjyjxalhqb" class="animable"></path><path d="M384.2,257.46a.7.7,0,0,0,0-1.4A.7.7,0,0,0,384.2,257.46Z" style="fill: rgb(0, 255, 136); transform-origin: 384.2px 256.76px;" id="elz59n9v0pr8m" class="animable"></path><path d="M326.67,67.4a.7.7,0,0,0,0-1.4A.7.7,0,0,0,326.67,67.4Z" style="fill: rgb(0, 255, 136); transform-origin: 326.67px 66.7px;" id="eltryn5cxwnv" class="animable"></path><path d="M160.86,248.21a1.9,1.9,0,0,0,0-3.79A1.9,1.9,0,0,0,160.86,248.21Z" style="fill: rgb(0, 255, 136); transform-origin: 160.86px 246.315px;" id="elhjsiz5nzmf" class="animable"></path><path d="M397.83,138.92c2.44,0,2.44-3.8,0-3.8A1.9,1.9,0,0,0,397.83,138.92Z" style="fill: rgb(0, 255, 136); transform-origin: 397.795px 137.02px;" id="elcizh0dq7ftg" class="animable"></path><polygon points="101.93 152.72 108.04 151.59 109.41 145.16 110.77 151.59 116.88 152.73 110.8 154.21 109.41 160.29 108.02 154.21 101.93 152.72" style="fill: rgb(255, 255, 255); transform-origin: 109.405px 152.725px;" id="eltdac23483iq" class="animable"></polygon><polygon points="101.47 261.66 107.58 260.53 108.94 254.09 110.31 260.53 116.42 261.67 110.33 263.15 108.94 269.24 107.55 263.15 101.47 261.66" style="fill: rgb(255, 255, 255); transform-origin: 108.945px 261.665px;" id="eli238gn758a" class="animable"></polygon><polygon points="334.01 127.06 340.12 125.94 341.48 119.5 342.85 125.94 348.96 127.07 342.88 128.55 341.48 134.64 340.09 128.55 334.01 127.06" style="fill: rgb(255, 255, 255); transform-origin: 341.485px 127.07px;" id="el212mwi5vpp8" class="animable"></polygon><polygon points="375.86 305.46 381.97 304.33 383.33 297.89 384.7 304.33 390.81 305.47 384.72 306.95 383.33 313.03 381.94 306.95 375.86 305.46" style="fill: rgb(255, 255, 255); transform-origin: 383.335px 305.46px;" id="elnebllcsh3s" class="animable"></polygon><polygon points="234.78 68.52 240.88 67.39 242.25 60.95 243.61 67.39 249.72 68.52 243.64 70 242.25 76.09 240.86 70 234.78 68.52" style="fill: rgb(255, 255, 255); transform-origin: 242.25px 68.52px;" id="eli4jagmxmdnr" class="animable"></polygon><polygon points="75.85 300.37 79.27 299.74 80.03 296.14 80.79 299.74 84.21 300.37 80.81 301.2 80.03 304.6 79.25 301.2 75.85 300.37" style="fill: rgb(255, 255, 255); transform-origin: 80.03px 300.37px;" id="el1przqh2pv4l" class="animable"></polygon><polygon points="278.33 124.85 281.75 124.22 282.51 120.62 283.27 124.22 286.69 124.86 283.29 125.69 282.51 129.09 281.73 125.69 278.33 124.85" style="fill: rgb(255, 255, 255); transform-origin: 282.51px 124.855px;" id="elq3kifqyx0ge" class="animable"></polygon><polygon points="160.85 187.51 164.27 186.88 165.03 183.28 165.79 186.88 169.21 187.52 165.81 188.35 165.03 191.75 164.25 188.35 160.85 187.51" style="fill: rgb(255, 255, 255); transform-origin: 165.03px 187.515px;" id="elgc5dv6iwla" class="animable"></polygon><polygon points="415.79 79.53 419.21 78.9 419.97 75.31 420.73 78.9 424.15 79.54 420.75 80.37 419.97 83.77 419.19 80.37 415.79 79.53" style="fill: rgb(255, 255, 255); transform-origin: 419.97px 79.54px;" id="elvrvanshzbnn" class="animable"></polygon><polygon points="370.48 269.23 373.89 268.6 374.65 265 375.42 268.6 378.83 269.23 375.43 270.06 374.65 273.46 373.88 270.06 370.48 269.23" style="fill: rgb(255, 255, 255); transform-origin: 374.655px 269.23px;" id="elp79t0l0da7" class="animable"></polygon><polygon points="309.3 173.21 312.71 172.57 313.47 168.97 314.24 172.57 317.65 173.21 314.25 174.04 313.47 177.44 312.69 174.04 309.3 173.21" style="fill: rgb(255, 255, 255); transform-origin: 313.475px 173.205px;" id="elaotvc9ebo7l" class="animable"></polygon><polygon points="337.31 342.2 340.72 341.57 341.48 337.97 342.25 341.57 345.66 342.21 342.26 343.04 341.48 346.44 340.71 343.04 337.31 342.2" style="fill: rgb(255, 255, 255); transform-origin: 341.485px 342.205px;" id="eltnhherbwtwr" class="animable"></polygon><polygon points="132.53 396.62 135.94 395.99 136.71 392.39 137.47 395.99 140.88 396.62 137.48 397.45 136.71 400.85 135.93 397.45 132.53 396.62" style="fill: rgb(255, 255, 255); transform-origin: 136.705px 396.62px;" id="ell8c9nxu3iqm" class="animable"></polygon><path d="M143,387.85a1,1,0,0,0,0-2A1,1,0,0,0,143,387.85Z" style="fill: rgb(255, 255, 255); transform-origin: 143px 386.85px;" id="el9g9uzrnrh7l" class="animable"></path><path d="M396,297.17a1,1,0,0,0,0-2A1,1,0,0,0,396,297.17Z" style="fill: rgb(255, 255, 255); transform-origin: 396px 296.17px;" id="el0esnzv4a5xv8" class="animable"></path><path d="M141.78,98.12a1,1,0,0,0,0-2A1,1,0,0,0,141.78,98.12Z" style="fill: rgb(255, 255, 255); transform-origin: 141.78px 97.12px;" id="elp28y16gfi0d" class="animable"></path><path d="M390.2,130.49a1,1,0,0,0,0-2A1,1,0,0,0,390.2,130.49Z" style="fill: rgb(255, 255, 255); transform-origin: 390.2px 129.49px;" id="elbtdjrhgluv" class="animable"></path><path d="M102.78,287.31a.71.71,0,0,0,0-1.41A.71.71,0,0,0,102.78,287.31Z" style="fill: rgb(255, 255, 255); transform-origin: 102.78px 286.605px;" id="elhv99zk3ib26" class="animable"></path><path d="M292.86,117.88a.7.7,0,0,0,0-1.4A.7.7,0,0,0,292.86,117.88Z" style="fill: rgb(255, 255, 255); transform-origin: 292.86px 117.18px;" id="elikpj0a4sdtk" class="animable"></path><path d="M384.2,257.46a.7.7,0,0,0,0-1.4A.7.7,0,0,0,384.2,257.46Z" style="fill: rgb(255, 255, 255); transform-origin: 384.2px 256.76px;" id="elngis4ujcbej" class="animable"></path><path d="M326.67,67.4a.7.7,0,0,0,0-1.4A.7.7,0,0,0,326.67,67.4Z" style="fill: rgb(255, 255, 255); transform-origin: 326.67px 66.7px;" id="el7q8rj5nxh2" class="animable"></path><path d="M160.86,248.21a1.9,1.9,0,0,0,0-3.79A1.9,1.9,0,0,0,160.86,248.21Z" style="fill: rgb(255, 255, 255); transform-origin: 160.86px 246.315px;" id="elmhrta2tlxv" class="animable"></path><path d="M397.83,138.92c2.44,0,2.44-3.8,0-3.8A1.9,1.9,0,0,0,397.83,138.92Z" style="fill: rgb(255, 255, 255); transform-origin: 397.795px 137.02px;" id="elrj7fyi7eti" class="animable"></path></g><defs>     <filter id="active" height="200%">         <feMorphology in="SourceAlpha" result="DILATED" operator="dilate" radius="2"></feMorphology>                <feFlood flood-color="#32DFEC" flood-opacity="1" result="PINK"></feFlood>        <feComposite in="PINK" in2="DILATED" operator="in" result="OUTLINE"></feComposite>        <feMerge>            <feMergeNode in="OUTLINE"></feMergeNode>            <feMergeNode in="SourceGraphic"></feMergeNode>        </feMerge>    </filter>    <filter id="hover" height="200%">        <feMorphology in="SourceAlpha" result="DILATED" operator="dilate" radius="2"></feMorphology>                <feFlood flood-color="#ff0000" flood-opacity="0.5" result="PINK"></feFlood>        <feComposite in="PINK" in2="DILATED" operator="in" result="OUTLINE"></feComposite>        <feMerge>            <feMergeNode in="OUTLINE"></feMergeNode>            <feMergeNode in="SourceGraphic"></feMergeNode>        </feMerge>            <feColorMatrix type="matrix" values="0   0   0   0   0                0   1   0   0   0                0   0   0   0   0                0   0   0   1   0 "></feColorMatrix>    </filter></defs></svg>